# xmcd
#
# Track frame offsets: 
#        150
#        11695
#        21707
#        35339
#        51298
#        62752
#        85142
#        100548
#        116891
#        129618
#        141015
#
# Disc length: 2015 seconds
#
# Revision: 0
# Processed by: cddbd v1.5.2PL0 Copyright (c) Steve Scherf et al.
# Submitted via: ExactAudioCopy v0.99pb4
#
DISCID=9607dd0b
DTITLE=Spitfire Tumbleweeds - Pope Crow
DYEAR=2009
DGENRE=Country
TTITLE0=Kings 85
TTITLE1=Down by Dawn
TTITLE2=The Less You Know
TTITLE3=Hozomeen
TTITLE4=No How
TTITLE5=36 Keys
TTITLE6=Mogen Daven
TTITLE7=House in Holiday
TTITLE8=No Shine
TTITLE9=Cigareets Whuskey and Wild Wild Women
TTITLE10=Shine (Reprise)
EXTD=
EXTT0=
EXTT1=
EXTT2=
EXTT3=
EXTT4=
EXTT5=
EXTT6=
EXTT7=
EXTT8=
EXTT9=
EXTT10=
PLAYORDER=
